HIERARCHY
ROOT Hips
{
	OFFSET 0.000000 8.830580 0.000000
	CHANNELS 6 Xposition Yposition Zposition Zrotation Yrotation Xrotation 
	JOINT Spine
	{
		OFFSET 0.000000 0.010000 0.000000
		CHANNELS 3 Zrotation Yrotation Xrotation
		JOINT Spine1
		{
			OFFSET 0.000000 2.459130 0.000000
			CHANNELS 3 Zrotation Yrotation Xrotation
			JOINT Neck
			{
				OFFSET 0.000000 2.484630 0.000000
				CHANNELS 3 Zrotation Yrotation Xrotation
				JOINT Head_virtual
				{
					OFFSET 0.000000 0.000000 0.000000
					CHANNELS 3 Zrotation Yrotation Xrotation
					JOINT Head
					{
						OFFSET 0.000000 0.927525 0.000000
						CHANNELS 3 Zrotation Yrotation Xrotation
						End Site
						{
							OFFSET 0.000000 0.000000 0.000000
						}
					}
				}
				JOINT LeftUpArm_virtual
				{
					OFFSET 0.000000 0.000000 0.000000
					CHANNELS 3 Zrotation Yrotation Xrotation
					JOINT LeftUpArm
					{
						OFFSET 1.248820 0.000000 0.000000
						CHANNELS 3 Zrotation Yrotation Xrotation
						JOINT LeftForeArm
						{
							OFFSET 2.597580 0.000000 0.000000
							CHANNELS 3 Zrotation Yrotation Xrotation
							JOINT LeftHand
							{
								OFFSET 2.455420 0.000000 0.000000
								CHANNELS 3 Zrotation Yrotation Xrotation
								End Site
								{
									OFFSET 0.000000 0.000000 0.000000
								}
							}
						}
					}
				}
				JOINT RightUpArm_virtual
				{
					OFFSET -0.000000 -0.000000 -0.000000
					CHANNELS 3 Zrotation Yrotation Xrotation
					JOINT RightUpArm
					{
						OFFSET -1.248820 -0.000000 -0.000000
						CHANNELS 3 Zrotation Yrotation Xrotation
						JOINT RightForeArm
						{
							OFFSET -2.597580 -0.000000 -0.000000
							CHANNELS 3 Zrotation Yrotation Xrotation
							JOINT RightHand
							{
								OFFSET -2.455420 -0.000000 -0.000000
								CHANNELS 3 Zrotation Yrotation Xrotation
								End Site
								{
									OFFSET 0.000000 0.000000 0.000000
								}
							}
						}
					}
				}
			}
		}
	}
	JOINT LeftUpLeg
	{
		OFFSET 1.271939 0.000000 0.000000
		CHANNELS 3 Zrotation Yrotation Xrotation
		JOINT LeftLowLeg
		{
			OFFSET 0.000000 -4.342910 0.000000
			CHANNELS 3 Zrotation Yrotation Xrotation
			JOINT LeftFoot
			{
				OFFSET 0.000000 -4.487670 0.000000
				CHANNELS 3 Zrotation Yrotation Xrotation
				JOINT LeftToeBase
				{
					OFFSET 0.000000 0.000000 1.515070
					CHANNELS 3 Zrotation Yrotation Xrotation
					End Site
					{
						OFFSET 0.000000 0.000000 0.000000
					}
				}
			}
		}
	}
	JOINT RightUpLeg
	{
		OFFSET -1.271939 0.000000 0.000000
		CHANNELS 3 Zrotation Yrotation Xrotation
		JOINT RightLowLeg
		{
			OFFSET 0.000000 -4.342910 0.000000
			CHANNELS 3 Zrotation Yrotation Xrotation
			JOINT RightFoot
			{
				OFFSET 0.000000 -4.487670 0.000000
				CHANNELS 3 Zrotation Yrotation Xrotation
				JOINT RightToeBase
				{
					OFFSET 0.000000 0.000000 1.515070
					CHANNELS 3 Zrotation Yrotation Xrotation
					End Site
					{
						OFFSET 0.000000 0.000000 0.000000
					}
				}
			}
		}
	}
}
MOTION
Frames: 11
Frame Time: 0.041667
-17.261059 9.000429 39.589101 -176.106538 -10.714973 -161.349504 6.788735 1.108432 -28.146036 -2.778952 -1.007614 8.227321 0.000000 0.000000 0.000000 9.548508 5.674848 -7.970567 -12.221129 -6.917479 -75.899694 -28.677000 1.272160 8.738800 -47.534500 1.825360 -14.539001 0.000000 1.308030 0.000000 3.361550 17.987600 30.988199 30.830799 -4.784350 2.232440 45.868301 -4.811120 9.031520 0.000000 2.427350 0.000000 4.400990 -10.165200 21.550400 6.525619 -19.005375 -18.146856 0.000000 0.000000 5.416600 -1.428360 20.558644 -3.017751 0.000000 0.000000 -11.218950 -1.614592 29.614873 -18.368363 0.000000 0.000000 5.566150 3.325203 -27.799941 2.610922 0.000000 0.000000 -18.326630 
-17.260083 8.999956 39.593377 -176.095388 -10.675735 -161.353449 6.834258 1.158585 -28.172773 -2.897893 -1.035941 8.146890 0.000000 0.000000 0.000000 9.694366 5.701999 -7.715394 -12.269398 -6.826040 -75.735948 -28.857800 1.107830 8.987800 -47.179501 0.677787 -13.570007 0.000000 0.841221 0.000000 2.230060 17.963699 32.201302 31.084700 -4.731140 2.338130 45.661800 -3.928310 10.117400 0.000000 2.999960 0.000000 4.968480 -10.172000 22.674900 6.520097 -18.932786 -18.129963 0.000000 0.000000 5.357990 -1.449354 20.522343 -3.014258 0.000000 0.000000 -11.196030 -1.633038 29.659483 -18.417495 0.000000 0.000000 5.593020 3.405144 -27.793666 2.583070 0.000000 0.000000 -18.341300 
-17.258369 8.999004 39.599009 -176.086998 -10.664752 -161.362605 6.863348 1.143486 -28.275237 -2.989231 -1.070932 8.254322 0.000000 0.000000 0.000000 9.868378 5.717735 -7.641321 -12.322423 -6.668670 -75.523360 -29.028700 0.954486 9.113200 -46.847599 -0.609756 -12.373993 0.000000 0.212775 0.000000 1.691140 17.415701 33.370899 31.300200 -4.546820 2.403560 45.486401 -3.010320 11.300900 0.000000 3.820850 0.000000 4.888250 -9.883470 24.777100 6.523648 -18.864450 -18.145364 0.000000 0.000000 5.343580 -1.486825 20.451607 -3.032081 0.000000 0.000000 -11.187040 -1.619094 29.614100 -18.448651 0.000000 0.000000 5.606570 3.405483 -27.742075 2.578907 0.000000 0.000000 -18.317930 
-17.256293 8.998301 39.603883 -176.084656 -10.639243 -161.361418 6.884750 1.127580 -28.416203 -3.086936 -1.091851 8.376142 0.000000 0.000000 0.000000 10.002225 5.776240 -7.539824 -12.313610 -6.507620 -75.322442 -29.234699 0.770646 9.283410 -46.428001 -1.956180 -11.338013 0.000000 -0.718393 0.000000 1.308800 17.117599 33.076401 31.568300 -4.346020 2.474260 45.170101 -2.011390 12.275700 0.000000 4.856250 0.000000 4.911430 -9.719640 24.602301 6.524818 -18.801708 -18.156834 0.000000 0.000000 5.314990 -1.492770 20.414474 -3.024732 0.000000 0.000000 -11.182890 -1.642650 29.648127 -18.496628 0.000000 0.000000 5.608400 3.418684 -27.755957 2.579349 0.000000 0.000000 -18.330550 
-17.254313 8.997539 39.611745 -176.095855 -10.535064 -161.326483 6.895065 1.204709 -28.523782 -3.221075 -1.037472 8.433123 0.000000 0.000000 0.000000 10.198609 5.777313 -7.424583 -12.314928 -6.384551 -75.149352 -29.479700 0.465612 9.509740 -45.891701 -3.347430 -10.278992 0.000000 -1.721130 0.000000 1.556500 16.569901 32.272301 31.828699 -4.184580 2.511070 44.877399 -0.921019 13.331200 0.000000 5.882800 0.000000 4.376210 -9.008910 23.296400 6.509504 -18.714053 -18.220648 0.000000 0.000000 5.318570 -1.529379 20.406964 -3.031627 0.000000 0.000000 -11.169740 -1.765185 29.782843 -18.649696 0.000000 0.000000 5.666130 3.553639 -27.736008 2.506214 0.000000 0.000000 -18.306040 
-17.253981 8.996753 39.618601 -176.097587 -10.314283 -161.303094 6.935347 1.387336 -28.620065 -3.420565 -0.942423 8.478296 0.000000 0.000000 0.000000 10.474216 5.734934 -7.323970 -12.357749 -6.245305 -74.945293 -29.707800 0.184170 9.652350 -45.336102 -4.724050 -9.042999 0.000000 -2.964650 0.000000 2.232410 16.086800 30.177999 32.146999 -3.987720 2.575250 44.450802 0.144257 14.478000 0.000000 7.182630 0.000000 3.634990 -8.389110 21.046801 6.439483 -18.535159 -18.219478 0.000000 0.000000 5.292280 -1.511446 20.458272 -3.033707 0.000000 0.000000 -11.155710 -1.870933 29.873445 -18.763022 0.000000 0.000000 5.685080 3.659808 -27.582318 2.482379 0.000000 0.000000 -18.318970 
-17.253231 8.996129 39.626268 -176.072462 -10.365444 -161.401091 6.999955 1.417699 -28.678993 -3.582470 -0.992873 8.625965 0.000000 0.000000 0.000000 10.708629 5.695295 -7.292214 -12.396158 -6.102546 -74.730963 -29.926300 -0.124344 9.789300 -44.739201 -6.156640 -7.626007 0.000000 -4.371020 0.000000 3.097930 15.480600 27.762400 32.369900 -3.749340 2.653380 44.109299 1.281610 15.318000 0.000000 8.549640 0.000000 2.473030 -7.471440 18.448999 6.492008 -18.662537 -18.227755 0.000000 0.000000 5.361610 -1.550355 20.520298 -3.068469 0.000000 0.000000 -11.148320 -1.765581 29.720834 -18.654201 0.000000 0.000000 5.628990 3.658633 -27.474169 2.527397 0.000000 0.000000 -18.316860 
-17.251156 8.995577 39.633911 -176.067244 -10.481007 -161.477685 7.034327 1.380322 -28.728612 -3.733689 -1.069695 8.691766 0.000000 0.000000 0.000000 10.922081 5.677742 -7.184810 -12.384523 -5.984079 -74.541331 -30.135200 -0.465657 10.004200 -44.108101 -7.554310 -6.127014 0.000000 -6.001210 0.000000 4.376540 14.782600 25.773800 32.644798 -3.473670 2.727880 43.615601 2.351520 16.568300 0.000000 10.169800 0.000000 1.199460 -6.793340 15.401400 6.562376 -18.823920 -18.289466 0.000000 0.000000 5.464360 -1.642912 20.520038 -3.105736 0.000000 0.000000 -11.152420 -1.660332 29.519566 -18.557487 0.000000 0.000000 5.563710 3.617929 -27.406564 2.573732 0.000000 0.000000 -18.301990 
-17.250089 8.995203 39.638547 -176.062536 -10.377225 -161.446753 7.047970 1.429915 -28.978782 -3.830842 -0.999674 8.923819 0.000000 0.000000 0.000000 11.092008 5.643556 -7.186403 -12.362301 -5.863246 -74.308953 -30.297100 -0.845145 10.251200 -43.483299 -9.002790 -4.734009 0.000000 -7.771280 0.000000 5.720480 14.036500 23.785500 32.814602 -3.198270 2.745300 43.220299 3.580620 17.375099 0.000000 11.615300 0.000000 -0.015709 -6.109440 12.647500 6.569655 -18.793919 -18.325077 0.000000 0.000000 5.447380 -1.667047 20.584875 -3.110795 0.000000 0.000000 -11.160480 -1.709012 29.544104 -18.616916 0.000000 0.000000 5.521150 3.545034 -27.351113 2.637417 0.000000 0.000000 -18.286320 
-17.248597 8.995337 39.642484 -176.069794 -10.225831 -161.464244 7.036666 1.449341 -29.199243 -3.869955 -0.918396 9.169838 0.000000 0.000000 0.000000 11.106460 5.676117 -7.163416 -12.332179 -5.749686 -74.036195 -30.484400 -1.198960 10.365600 -42.795200 -10.361400 -3.230988 0.000000 -9.622170 0.000000 7.142130 13.151500 22.306499 32.937698 -2.926890 2.832720 42.822601 4.917700 17.997801 0.000000 13.012500 0.000000 -1.253190 -5.280720 10.608500 6.537377 -18.747400 -18.281716 0.000000 0.000000 5.409820 -1.664529 20.675563 -3.094691 0.000000 0.000000 -11.146720 -1.754265 29.614101 -18.624475 0.000000 0.000000 5.483000 3.541418 -27.284362 2.684449 0.000000 0.000000 -18.280620 
-17.247264 8.995918 39.647903 -176.078083 -10.125333 -161.554141 7.032809 1.486630 -29.280512 -3.961546 -0.870600 9.301653 0.000000 0.000000 0.000000 11.183491 5.682694 -7.080537 -12.386344 -5.619276 -73.714668 -30.590599 -1.575250 10.572400 -42.119598 -11.734800 -2.014008 0.000000 -11.533500 0.000000 8.474840 12.397100 20.918600 33.078300 -2.698620 2.859150 42.374298 6.176740 18.663500 0.000000 14.594100 0.000000 -2.370500 -4.531570 6.706690 6.509432 -18.772773 -18.217438 0.000000 0.000000 5.430940 -1.675380 20.766282 -3.071301 0.000000 0.000000 -11.165310 -1.722516 29.554069 -18.527579 0.000000 0.000000 5.426260 3.587651 -27.106421 2.728932 0.000000 0.000000 -18.269290 
